<?xml version="1.0" encoding="UTF-8"?>
<svg id="Calque_1" xmlns="http://www.w3.org/2000/svg" version="1.1" xmlns:xlink="http://www.w3.org/1999/xlink" viewBox="0 0 1000 1000">
  <!-- Generator: Adobe Illustrator 29.5.0, SVG Export Plug-In . SVG Version: 2.1.0 Build 137)  -->
  <defs>
    <style>
      .st0 {
        fill: #fff;
      }

      .st1 {
        fill: url(#Dégradé_sans_nom_37);
      }
    </style>
    <linearGradient id="Dégradé_sans_nom_37" data-name="Dégradé sans nom 37" x1="323.65" y1="73.67" x2="648.41" y2="864.14" gradientUnits="userSpaceOnUse">
      <stop offset="0" stop-color="#36c2ff"/>
      <stop offset=".99" stop-color="#290573"/>
    </linearGradient>
  </defs>
  <g>
    <path d="M499.49,578.47l18.1,55.61c2.26.35,1.37-.2,1.84-1.24,6.79-14.96,10.52-33.96,16.67-49.53.62-1.57,1.27-3.14,1.93-4.69l17.09.71,19.4,54.75,19.41-55.61h15.89c.63,0,1.74,1.93,1.17,2.86-8.81,22.56-14.61,47.67-23.67,69.97-1.87,4.6-1.88,7.89-7.46,8.43-3.37.33-13.21.76-15.02-1.86l-17.7-52.92-19.38,53.87-18.13.43-28.29-78.55c-.08-.74.93-2.22,1.37-2.22h16.77Z"/>
    <path d="M430.91,576.97c62.9-5.45,64.11,92.81-3.57,84.24-46.87-5.94-47.23-79.84,3.57-84.24ZM452.84,639.06c11.91-11.74,9.49-35.64-5.83-43.41-26.6-13.49-47.15,19.96-30.92,41.52,8.22,10.92,27.25,11.27,36.75,1.89Z"/>
    <path d="M297.81,567v29.13h40.16l1.32,1.32v14.12c0,.46-2.21,2.32-3.16,2.21l-38.32-.88v45.45c-4.26,3.56-13.98,3.17-18.53,0v-106.8c.77-1.26,1.76-1.22,3.04-1.37,17.84-2.09,40.08.56,58.35-.89,1.33-.52,4.8,1.24,4.8,2.26v14.12l-1.32,1.32h-46.34Z"/>
    <path d="M671.6,578.47l23.83,57.38,22.07-57.38h15.89c.91,0,1.35,1.76,1.18,2.88-.4,2.64-4.14,10.82-5.37,14.11-11.57,31.01-24.71,61.48-36.41,92.45l-2.64,3.54h-15c-1.68,0-1.18-3.29-.95-4.46,1.18-6.06,12.09-25.75,11.78-29.37l-31.55-77c-.18-.74.93-2.14,1.31-2.14h15.89Z"/>
    <path d="M623.5,551.56c.89-2.77,15.51-3.05,17.44-1.11l1.01,2.93c-2.08,32.34,3.05,68.75.12,100.61-.21,2.29-.33,4.1-2.25,5.7h-15l-1.32-1.32v-106.8Z"/>
    <path d="M358.71,550.23c.64-.76,18.98-3.04,17.7,3.04l-.04,104.21c-.84,4.35-14.59,4.08-17.66.87v-108.12Z"/>
  </g>
  <circle class="st0" cx="500" cy="500" r="459.97"/>
  <path class="st1" d="M547.37,549.08c.76.22,1.72.35,2.72.07,1.72-.49,2.68-1.96,2.9-2.28,3.05-4.38,59.44-68.16,87.69-89.86,6.15-4.72,41.94-27.89,73.79-25.29,70.68,5.77,121.63,94.14,64.31,165.64l-224.89,224.6c-85.42,64.89-197.14-32.35-143.2-125.22,19.61-33.76,86.13-75.36,85.14-112.82-.88-33.52-49.2-61.98-64.33-93.18-43.9-90.55,76.6-147.46,116.82-209.24,22.69-34.85-8.76-80.2-45.29-63.26-21.84,10.12-72.3,71.03-92.73,91.56-17.33,17.43-36.19,33.91-53.22,51.28-18.19,18.55-88.04,83.95-96.43,100.22-3.94,7.63-5.27,15.68-4.46,23.28,1.66,15.56,17.73,24.46,36.08,35.32,20.51,12.13,30.79,18.21,44.98,18.57,32.97.85,55.36-29.98,57.45-27.83,2.48,2.56-22.2,53.5-69.92,64.22-58.47,13.14-124.43-40.39-127.99-87.61-2.77-36.68,14.04-60.87,37.01-86.53,67.73-75.7,150.1-143.97,219.13-219.12,94.44-77.49,218.56,43.6,133.78,145.02-25.06,29.98-81.76,75.59-98.25,106.27-25.37,47.17,50.02,73.77,58.93,116.2ZM708.41,489.22c-7.98.07-18.03,3.9-24.03,9.25-74.31,77.61-155.63,149.36-225.59,230.65-9.08,20.14.39,44.81,21.18,52.51,19.07,7.07,31.36-.55,45.95-12.36,70.33-56.94,133.77-143.41,203.4-203.4,26.91-22.87,17.65-77-20.9-76.65Z"/>
</svg>